HIERARCHY
ROOT Hips
{
	OFFSET	0.00	0.00	0.00
	CHANNELS 6 Xposition Yposition Zposition Zrotation Xrotation Yrotation
	JOINT LeftUpLeg
	{
		OFFSET	 0.126116	-0.014019	-0.065224
		CHANNELS 3 Zrotation Xrotation Yrotation
		JOINT LeftLeg
		{
			OFFSET	 0.000000	 0.000000	 0.569914
			CHANNELS 3 Zrotation Xrotation Yrotation
			JOINT LeftFoot
			{
				OFFSET	 0.000000	 0.000000	 0.544423
				CHANNELS 3 Zrotation Xrotation Yrotation
				JOINT LeftToeBase
				{
					OFFSET	 0.000000	 0.000000	 0.207117
					CHANNELS 3 Zrotation Xrotation Yrotation
					End Site
					{
						OFFSET	 0.000000	 0.000000	 0.207117
					}
				}
			}
		}
	}
	JOINT RightUpLeg
	{
		OFFSET	-0.124023	-0.008373	-0.065224
		CHANNELS 3 Zrotation Xrotation Yrotation
		JOINT RightLeg
		{
			OFFSET	 0.000000	 0.000000	 0.570047
			CHANNELS 3 Zrotation Xrotation Yrotation
			JOINT RightFoot
			{
				OFFSET	 0.000000	 0.000000	 0.544354
				CHANNELS 3 Zrotation Xrotation Yrotation
				JOINT RightToeBase
				{
					OFFSET	 0.000000	 0.000000	 0.207540
					CHANNELS 3 Zrotation Xrotation Yrotation
					End Site
					{
						OFFSET	 0.000000	 0.000000	 0.207540
					}
				}
			}
		}
	}
	JOINT Spine
	{
		OFFSET	 0.000184	-0.007763	 0.117403
		CHANNELS 3 Zrotation Xrotation Yrotation
		JOINT Spine1
		{
			OFFSET	 0.000000	 0.000000	 0.137269
			CHANNELS 3 Zrotation Xrotation Yrotation
			JOINT Spine2
			{
				OFFSET	 0.000000	 0.000000	 0.156879
				CHANNELS 3 Zrotation Xrotation Yrotation
				JOINT LeftShoulder
				{
					OFFSET	 0.080501	-0.002496	 0.160144
					CHANNELS 3 Zrotation Xrotation Yrotation
					JOINT LeftArm
					{
						OFFSET	 0.000000	 0.000000	 0.164363
						CHANNELS 3 Zrotation Xrotation Yrotation
						JOINT LeftForeArm
						{
							OFFSET	 0.000000	 0.000000	 0.364576
							CHANNELS 3 Zrotation Xrotation Yrotation
							JOINT LeftHand
							{
								OFFSET	 0.000000	 0.000000	 0.360812
								CHANNELS 3 Zrotation Xrotation Yrotation
								JOINT LeftHandIndex1
								{
									OFFSET	 0.000000	 0.000000	 0.086006
									CHANNELS 3 Zrotation Xrotation Yrotation
									JOINT LeftHandIndex2
									{
										OFFSET	 0.000000	 0.000000	 0.047236
										CHANNELS 3 Zrotation Xrotation Yrotation
										JOINT LeftHandIndex3
										{
											OFFSET	-0.004284	-0.000551	 0.038166
											CHANNELS 3 Zrotation Xrotation Yrotation
											End Site
											{
												OFFSET	-0.004284	-0.000551	 0.038166
											}
										}
									}
								}
							}
						}
					}
				}
				JOINT Neck
				{
					OFFSET	 0.000000	 0.000000	 0.176489
					CHANNELS 3 Zrotation Xrotation Yrotation
					JOINT Head
					{
						OFFSET	 0.000000	-0.001747	 0.077940
						CHANNELS 3 Zrotation Xrotation Yrotation
						End Site
						{
							OFFSET	 0.000000	-0.001747	 0.077940
						}
					}
				}
				JOINT RightShoulder
				{
					OFFSET	-0.080363	 0.000306	 0.159706
					CHANNELS 3 Zrotation Xrotation Yrotation
					JOINT RightArm
					{
						OFFSET	 0.000000	 0.000000	 0.164196
						CHANNELS 3 Zrotation Xrotation Yrotation
						JOINT RightForeArm
						{
							OFFSET	 0.000000	 0.000000	 0.365611
							CHANNELS 3 Zrotation Xrotation Yrotation
							JOINT RightHand
							{
								OFFSET	 0.000000	 0.000000	 0.360648
								CHANNELS 3 Zrotation Xrotation Yrotation
								JOINT RightHandIndex1
								{
									OFFSET	 0.000000	 0.000000	 0.069977
									CHANNELS 3 Zrotation Xrotation Yrotation
									JOINT RightHandIndex2
									{
										OFFSET	 0.000000	 0.000000	 0.052305
										CHANNELS 3 Zrotation Xrotation Yrotation
										JOINT RightHandIndex3
										{
											OFFSET	 0.009002	-0.000782	 0.042196
											CHANNELS 3 Zrotation Xrotation Yrotation
											End Site
											{
												OFFSET	 0.009002	-0.000782	 0.042196
											}
										}
									}
								}
							}
						}
					}
				}
			}
		}
	}
}
MOTION
Frames:    10
Frame Time: 0.03333334
-0.024525	 0.262240	 1.070529	 2.111027	 32.162110	-7.753715	 48.641270	-70.957860	-140.625500	 4.342836	-62.559090	 4.225944	 59.293000	 71.745820	-70.618100	-2.385832	 28.452790	-0.000001	 17.638960	-79.876360	-157.192400	-13.428850	-66.747370	-7.618049	-23.691170	 73.796700	 48.331230	 2.384659	 28.388700	-0.000001	-8.995576	 13.939110	 1.330181	-2.037920	 14.145730	 2.381149	-1.703545	 2.827405	 2.889186	-99.133900	 68.198190	 156.884200	 3.340287	-8.389145	-47.728060	 3.416678	-1.185527	-6.352299	-27.253600	-37.345710	-19.237130	-2.027600	 6.559038	 9.033609	-5.188889	 0.308190	 3.541030	-5.234859	 0.342567	 0.430617	 0.292137	 17.256000	-5.849479	-0.051261	-26.293130	-0.851292	 97.450900	 64.605240	-159.410000	-9.198442	 6.073825	 49.707730	-16.117430	-6.869193	 38.193470	 9.754165	-36.380350	 14.125980	 1.803333	 3.979147	-15.098590	 4.898592	 3.004813	-9.310344	 5.224449	 0.395017	 2.014677
-0.022411	 0.260929	 1.080873	 1.918135	 31.548390	-7.380476	 45.795410	-69.577510	-143.696200	 3.951386	-60.911050	 3.818728	 57.912250	 71.547630	-68.924740	-2.385832	 28.452790	-0.000001	 11.707000	-78.305080	-162.746400	-12.989400	-64.990650	-7.115664	-22.814890	 73.439280	 47.205470	 2.384659	 28.388700	-0.000001	-12.743330	 13.616020	 1.284201	-2.032769	 13.765460	 2.437998	-1.238369	 2.543002	 2.546346	-98.969330	 68.278440	 157.269000	 3.806748	-7.032763	-47.965710	 5.261471	-1.579633	-7.155771	-26.998410	-38.975780	-19.078990	-2.027600	 6.559038	 9.033609	-5.188889	 0.308190	 3.541030	-5.234859	 0.342567	 0.430617	-0.021181	 15.288100	-5.092298	 0.216174	-24.366200	-1.031262	 97.344610	 64.493070	-159.797900	-9.960097	 6.313570	 48.605770	-16.833110	-8.205433	 40.665330	 9.266011	-37.902820	 14.319000	 1.803333	 3.979147	-15.098590	 4.898592	 3.004813	-9.310344	 5.224449	 0.395017	 2.014677
-0.020342	 0.259303	 1.091378	 1.812004	 30.933630	-7.040903	 43.159030	-68.128510	-146.488300	 3.674166	-59.174640	 3.514392	 56.206250	 71.299100	-66.962270	-2.385832	 28.452790	-0.000001	 6.973801	-76.611590	-167.024200	-12.605160	-63.178220	-6.664055	-21.854890	 73.049130	 45.979920	 2.384659	 28.388700	-0.000001	-16.348140	 13.257180	 1.237454	-2.037788	 13.479740	 2.475475	-0.801716	 2.184098	 2.204773	-98.705250	 68.548130	 157.682500	 4.267259	-5.518710	-48.351740	 7.075802	-2.006724	-7.917629	-26.821220	-40.601080	-19.025330	-2.027600	 6.559038	 9.033609	-5.188889	 0.308190	 3.541030	-5.234859	 0.342567	 0.430617	-0.298388	 12.981670	-4.528870	 0.534740	-22.104140	-1.099958	 97.208750	 64.272640	-160.353700	-10.785720	 6.356788	 47.663870	-17.432710	-9.615536	 43.154740	 8.602631	-39.216150	 14.493170	 1.803333	 3.979147	-15.098590	 4.898592	 3.004813	-9.310344	 5.224449	 0.395017	 2.014677
-0.018335	 0.257452	 1.101713	 1.723168	 30.325940	-6.720584	 40.841500	-66.633460	-148.954000	 3.428776	-57.418650	 3.241586	 54.510040	 71.048810	-64.990830	-2.385832	 28.452790	-0.000001	 3.328374	-74.851370	-170.216400	-12.269940	-61.349030	-6.258822	-20.926200	 72.640450	 44.802210	 2.384659	 28.388700	-0.000001	-19.726140	 12.900740	 1.190350	-2.046690	 13.137790	 2.531545	-0.386398	 1.863357	 1.869892	-98.448290	 68.813790	 158.089000	 4.701736	-4.025503	-48.713290	 8.763668	-2.453344	-8.622157	-26.597420	-42.124930	-18.926040	-2.027600	 6.559038	 9.033609	-5.188889	 0.308190	 3.541030	-5.234859	 0.342567	 0.430617	-0.545815	 10.718600	-3.993454	 0.845833	-19.893060	-1.191044	 97.083080	 64.043190	-160.987100	-11.606050	 6.371514	 46.812690	-17.875570	-11.034640	 45.600110	 7.976648	-40.429390	 14.638460	 1.803333	 3.979147	-15.098590	 4.898592	 3.004813	-9.310344	 5.224449	 0.395017	 2.014677
-0.016511	 0.255503	 1.111748	 1.597693	 29.638760	-6.367050	 38.750360	-65.055790	-151.271900	 3.218603	-55.694090	 3.004057	 52.883050	 70.843960	-63.087790	-2.385832	 28.452790	-0.000001	 0.219160	-72.981100	-172.882800	-12.027440	-59.521350	-5.937638	-20.053710	 72.269220	 43.658340	 2.384659	 28.388700	-0.000001	-22.966370	 12.529010	 1.159450	-2.103518	 12.961270	 2.617593	 0.024947	 1.344118	 1.521884	-98.020810	 69.409310	 158.536500	 5.224050	-2.257028	-49.177260	 10.502080	-2.923252	-9.284874	-26.638500	-43.630330	-19.158120	-2.027600	 6.559038	 9.033609	-5.188889	 0.308190	 3.541030	-5.234859	 0.342567	 0.430617	-0.752116	 7.921796	-3.392614	 1.089575	-17.210130	-1.439662	 96.902010	 64.139470	-161.263400	-12.404700	 6.975189	 45.850400	-18.448170	-12.650360	 47.888540	 7.179671	-41.517610	 14.518950	 1.803333	 3.979147	-15.098590	 4.898592	 3.004813	-9.310344	 5.224449	 0.395017	 2.014677
-0.014910	 0.253297	 1.121702	 1.466404	 28.906800	-6.032046	 36.851130	-63.405600	-153.416600	 3.032209	-53.976160	 2.790419	 51.207420	 70.675860	-61.130780	-2.385833	 28.452760	 0.000004	-2.361725	-71.018400	-175.012700	-11.823010	-57.667640	-5.648868	-19.278580	 71.878640	 42.606830	 2.384659	 28.388700	-0.000001	-26.056210	 12.160450	 1.153400	-2.154551	 12.751170	 2.736479	 0.427206	 0.814365	 1.162666	-97.562070	 70.063390	 158.997700	 5.745940	-0.413379	-49.697220	 12.186090	-3.420386	-9.920169	-26.668830	-45.087670	-19.407770	-2.027600	 6.559038	 9.033609	-5.188889	 0.308190	 3.541030	-5.234859	 0.342567	 0.430617	-0.928411	 4.994791	-2.782401	 1.335979	-14.415980	-1.733959	 96.724860	 64.263230	-161.617900	-13.199410	 7.617220	 44.990200	-18.930290	-14.332670	 50.141850	 6.340847	-42.537780	 14.344390	 1.803333	 3.979147	-15.098590	 4.898592	 3.004813	-9.310344	 5.224449	 0.395017	 2.014677
-0.013582	 0.251032	 1.131275	 1.334433	 28.165740	-5.708615	 35.181470	-61.766830	-155.349100	 2.921945	-52.308940	 2.642928	 49.500790	 70.533290	-59.186940	-2.385833	 28.452760	 0.000004	-4.534111	-69.049130	-176.744600	-11.688720	-55.822330	-5.419984	-18.603450	 71.487270	 41.675470	 2.384659	 28.388700	-0.000001	-28.848630	 11.802190	 1.170365	-2.179168	 12.616100	 2.823106	 0.812634	 0.235864	 0.847873	-96.951570	 71.024810	 159.437500	 6.259582	 1.636451	-50.459190	 13.800260	-3.922247	-10.505200	-26.740670	-46.472780	-19.624650	-2.027600	 6.559038	 9.033609	-5.188889	 0.308190	 3.541030	-5.234859	 0.342567	 0.430617	-1.072133	 2.009216	-2.389610	 1.628700	-11.563800	-1.894579	 96.435340	 64.698390	-162.011700	-13.930050	 8.560132	 44.422310	-19.337450	-16.021310	 52.246970	 5.575909	-43.639580	 14.116310	 1.803333	 3.979147	-15.098590	 4.898592	 3.004813	-9.310344	 5.224449	 0.395017	 2.014677
-0.012470	 0.248719	 1.140536	 1.205606	 27.403510	-5.375864	 33.680920	-60.124270	-157.140800	 2.890492	-50.670070	 2.559164	 47.758130	 70.400690	-57.254250	-2.385833	 28.452760	 0.000004	-6.451680	-67.050640	-178.226000	-11.625340	-53.970630	-5.247447	-18.000230	 71.106070	 40.845850	 2.384659	 28.388700	-0.000001	-31.370320	 11.453490	 1.200270	-2.177278	 12.602000	 2.858660	 1.187071	-0.427908	 0.587622	-96.117800	 72.391020	 159.835100	 6.787710	 3.979605	-51.536340	 15.370080	-4.429321	-11.043790	-26.859500	-47.807950	-19.807110	-2.027600	 6.559038	 9.033609	-5.188889	 0.308190	 3.541030	-5.234859	 0.342567	 0.430617	-1.202957	-1.098305	-2.259628	 1.967366	-8.586623	-1.891484	 95.999220	 65.534730	-162.460700	-14.622440	 9.900983	 44.231760	-19.702720	-17.737200	 54.217390	 4.870251	-44.892800	 13.812450	 1.803333	 3.979147	-15.098590	 4.898592	 3.004813	-9.310344	 5.224449	 0.395017	 2.014677
-0.011382	 0.245748	 1.150916	 1.085021	 26.499410	-5.008084	 32.106820	-58.185910	-159.052800	 2.875129	-48.791220	 2.477550	 45.682930	 70.249310	-54.953190	-2.385833	 28.452750	 0.000004	-8.332158	-64.692130	-179.590000	-11.502030	-51.843750	-5.005537	-17.418780	 70.670320	 39.981480	 2.384659	 28.388700	-0.000001	-33.957850	 11.058990	 1.239810	-2.162861	 12.582900	 2.893330	 1.591559	-1.203762	 0.308602	-95.103060	 73.982240	 160.257100	 7.420678	 6.668924	-52.847090	 17.115690	-5.019035	-11.618320	-26.947480	-49.250470	-20.015480	-2.027600	 6.559038	 9.033609	-5.188889	 0.308190	 3.541030	-5.234859	 0.342567	 0.430617	-1.346402	-4.756107	-2.160314	 2.344988	-5.092017	-1.908677	 95.490460	 66.519870	-162.984500	-15.434420	 11.435840	 44.111420	-19.981900	-19.688970	 56.421870	 3.995773	-46.235480	 13.393150	 1.803333	 3.979147	-15.098590	 4.898592	 3.004813	-9.310344	 5.224449	 0.395017	 2.014677
-0.010611	 0.242968	 1.159168	 1.050979	 25.657020	-4.686315	 30.804780	-56.511460	-160.635800	 2.936828	-47.283300	 2.465073	 43.876060	 70.112920	-52.989380	-2.385833	 28.452750	 0.000004	-9.745279	-62.619270	 179.466600	-10.988150	-50.152150	-4.491471	-17.264820	 70.447400	 39.283970	 2.384659	 28.388700	-0.000001	-35.892640	 10.736630	 1.258487	-2.173349	 12.730890	 2.849429	 1.916182	-2.004378	 0.146016	-94.194610	 75.319610	 160.634000	 8.158669	 8.714734	-54.054950	 18.560260	-5.515448	-12.063170	-26.780550	-50.331830	-20.172840	-2.027600	 6.559038	 9.033609	-5.188889	 0.308190	 3.541030	-5.234859	 0.342567	 0.430617	-1.470442	-8.191116	-2.339162	 2.662993	-1.845742	-1.826688	 95.033870	 67.425320	-163.437700	-16.233910	 12.716050	 44.262110	-20.131710	-21.249310	 58.096350	 3.117012	-47.261540	 12.799480	 1.803333	 3.979147	-15.098590	 4.898592	 3.004813	-9.310344	 5.224449	 0.395017	 2.014677
